<?xml version="1.0" standalone="no"?>
<!DOCTYPE svg PUBLIC "-//W3C//DTD SVG 20010904//EN"
 "http://www.w3.org/TR/2001/REC-SVG-20010904/DTD/svg10.dtd">
<svg version="1.0" xmlns="http://www.w3.org/2000/svg"
 width="386.000000pt" height="604.000000pt" viewBox="0 0 386.000000 604.000000"
 preserveAspectRatio="xMidYMid meet">

<g transform="translate(0.000000,604.000000) scale(0.100000,-0.100000)"
fill="#000000" stroke="none">
<path d="M2375 4515 c-33 -7 -84 -23 -114 -34 -60 -24 -177 -97 -204 -128 -18
-20 -18 -20 -96 19 -67 35 -89 41 -163 45 -53 4 -106 1 -139 -7 -205 -48 -387
-239 -422 -443 -9 -55 -14 -67 -30 -67 -36 0 -169 -51 -224 -86 -163 -104
-256 -290 -223 -447 37 -178 181 -300 385 -326 111 -14 214 3 336 53 14 6 20
-8 39 -84 12 -50 29 -98 37 -106 19 -19 47 -18 64 3 22 27 166 89 269 117 229
60 450 71 575 28 53 -18 63 -19 82 -7 24 16 37 81 37 190 l1 60 58 30 c236
123 386 347 403 604 26 384 -299 668 -671 586z m240 -90 c224 -59 357 -249
342 -490 -10 -158 -70 -288 -187 -405 -44 -44 -100 -89 -137 -108 l-61 -32
-22 72 c-27 92 -44 118 -75 118 -43 0 -49 -31 -21 -108 31 -87 50 -211 41
-278 l-6 -52 -37 11 c-21 7 -104 11 -192 11 -128 -1 -178 -6 -284 -28 -123
-25 -296 -83 -342 -113 -22 -14 -23 -13 -39 59 -10 40 -20 127 -22 193 -3 66
-10 126 -15 133 -14 16 -53 15 -67 -2 -8 -10 -11 -48 -9 -114 l3 -100 -66 -25
c-83 -32 -187 -50 -248 -42 -163 22 -281 109 -317 233 -80 275 294 548 595
433 57 -21 76 -19 92 10 23 44 -31 78 -156 100 l-67 11 6 42 c9 57 55 151 103
212 117 147 342 207 490 131 l52 -27 -52 -83 c-63 -99 -97 -190 -81 -215 6 -9
23 -18 38 -20 23 -3 29 2 46 45 78 188 179 303 336 382 115 58 246 75 359 46z"/>
<path d="M2057 3619 c-173 -23 -285 -58 -364 -113 -50 -34 -64 -65 -43 -92 16
-19 54 -18 71 2 62 75 366 138 552 114 99 -13 110 -9 105 36 -2 24 -10 31 -42
42 -53 17 -196 23 -279 11z"/>
<path d="M2486 2938 c-7 -13 -16 -59 -20 -103 -5 -73 -27 -180 -40 -192 -9
-10 -76 30 -131 78 -63 55 -114 74 -164 59 -18 -5 -39 -14 -46 -20 -10 -8 -20
-8 -37 3 -61 39 -131 26 -198 -37 -47 -44 -91 -73 -122 -81 -24 -6 -28 -3 -37
32 -6 22 -14 55 -17 74 -11 55 -22 71 -51 67 -51 -6 -52 -21 -16 -175 5 -21 2
-23 -35 -23 -42 0 -72 -19 -72 -46 0 -24 48 -62 129 -102 50 -25 97 -60 137
-99 33 -34 89 -76 125 -94 61 -33 69 -34 174 -34 106 0 113 1 175 34 35 18 90
59 120 90 38 39 82 69 141 98 89 44 139 82 139 107 0 28 -30 46 -76 46 -50 0
-51 2 -29 75 9 28 19 92 22 144 6 84 4 95 -12 107 -27 20 -42 17 -59 -8z
m-465 -264 c15 -18 78 -18 98 0 35 30 58 28 98 -7 63 -56 105 -83 167 -108
l59 -24 -54 -17 c-62 -19 -170 -23 -202 -7 -12 6 -36 26 -54 45 -23 24 -41 34
-63 34 -22 0 -40 -10 -63 -34 -18 -19 -42 -39 -54 -45 -32 -16 -140 -12 -203
7 l-55 18 50 18 c60 23 113 55 163 100 53 47 85 53 113 20z m62 -198 c9 -22
108 -66 151 -66 39 -1 40 -1 21 -16 -108 -86 -272 -86 -380 0 -19 15 -18 15
25 16 50 0 114 26 145 58 24 25 31 26 38 8z"/>
</g>
</svg>
